# Blender v2.93.3 OBJ File: ''
# www.blender.org
mtllib body.mtl
o Base.002_Cylinder.004
v 0.057223 1.557166 -0.135124
v 0.114375 2.249048 -0.181462
v 0.201094 1.548701 -0.094211
v 0.180873 2.236635 -0.141728
v 0.247644 1.524634 -0.000002
v 0.219191 1.501062 0.077586
v 0.180873 2.219676 -0.046884
v 0.130639 1.483648 0.135990
v 0.114375 2.211805 -0.010557
v 0.154709 2.123026 -0.230186
v 0.153102 1.987136 -0.232349
v 0.117874 1.855558 -0.199808
v 0.081075 1.687839 -0.126397
v 0.261551 2.108248 -0.200119
v 0.278973 2.000258 -0.204419
v 0.244491 1.847975 -0.142165
v 0.201464 1.678716 -0.090734
v 0.296629 1.941625 -0.067536
v 0.278673 1.837616 -0.037753
v 0.247502 1.666252 0.006864
v 0.262916 2.067872 0.058312
v 0.290286 1.984295 0.067918
v 0.244491 1.827258 0.066659
v 0.217496 1.653789 0.086405
v 0.160954 2.053093 0.124935
v 0.160922 1.943879 0.140826
v 0.151105 1.819675 0.143095
v 0.135520 1.644665 0.144632
v 0.137665 2.186037 -0.206322
v 0.221212 2.174713 -0.173125
v 0.222033 2.142951 0.016101
v 0.137665 2.132449 0.057189
v 0.115937 1.553712 -0.132441
v 0.023537 1.561724 -0.147683
v 0.023537 2.251929 -0.190438
v -0.010149 1.557166 -0.135124
v -0.067301 2.249048 -0.181462
v -0.154019 1.548701 -0.094211
v -0.133799 2.236635 -0.141728
v -0.200570 1.524634 -0.000002
v -0.172116 1.501062 0.077586
v -0.133799 2.219676 -0.046884
v -0.083565 1.483648 0.135990
v -0.067301 2.211805 -0.010557
v 0.023537 1.476496 0.156028
v 0.023537 2.208924 0.002740
v 0.023537 1.691179 -0.124857
v 0.023537 1.858334 -0.211566
v 0.023537 1.990482 -0.230962
v 0.023537 2.128436 -0.222838
v -0.107635 2.123026 -0.230186
v -0.106027 1.987136 -0.232349
v -0.070800 1.855558 -0.199808
v -0.034000 1.687839 -0.126397
v -0.214476 2.108248 -0.200119
v -0.231899 2.000258 -0.204419
v -0.197417 1.847975 -0.142165
v -0.154389 1.678716 -0.090734
v -0.249554 1.941625 -0.067536
v -0.231599 1.837616 -0.037753
v -0.200427 1.666252 0.006864
v -0.215842 2.067872 0.058312
v -0.243212 1.984295 0.067918
v -0.197417 1.827258 0.066659
v -0.170422 1.653789 0.086405
v -0.113880 2.053093 0.124935
v -0.113848 1.943879 0.140826
v -0.104031 1.819675 0.143095
v -0.088445 1.644665 0.144632
v 0.023537 2.047683 0.152404
v 0.023537 1.940533 0.169691
v 0.023537 1.816899 0.171072
v 0.023537 1.641325 0.165945
v 0.023537 2.190182 -0.205680
v -0.090590 2.186037 -0.206322
v -0.174137 2.174713 -0.173125
v -0.174958 2.142951 0.016101
v -0.090590 2.132449 0.057189
v 0.023537 2.128304 0.077572
v -0.068862 1.553712 -0.132441
vt 1.000000 0.950000
vt 1.000000 1.000000
vt 0.916667 1.000000
vt 0.916667 0.950000
vt 0.833333 1.000000
vt 0.833333 0.950000
vt 0.666667 0.950000
vt 0.666667 1.000000
vt 0.583333 1.000000
vt 0.583333 0.950000
vt 0.500000 1.000000
vt 0.500000 0.950000
vt 0.583333 0.500000
vt 0.583333 0.600000
vt 0.500000 0.600000
vt 0.500000 0.500000
vt 0.583333 0.700000
vt 0.500000 0.700000
vt 0.583333 0.800000
vt 0.500000 0.800000
vt 0.583333 0.900000
vt 0.500000 0.900000
vt 0.666667 0.500000
vt 0.666667 0.600000
vt 0.666667 0.700000
vt 0.666667 0.800000
vt 0.666667 0.900000
vt 0.750000 0.500000
vt 0.750000 0.600000
vt 0.750000 0.700000
vt 0.750000 0.800000
vt 0.833333 0.500000
vt 0.833333 0.600000
vt 0.833333 0.700000
vt 0.833333 0.800000
vt 0.916667 0.500000
vt 0.916667 0.600000
vt 0.882658 0.500000
vt 0.916667 0.700000
vt 0.916667 0.800000
vt 0.916667 0.900000
vt 0.833333 0.900000
vt 1.000000 0.500000
vt 1.000000 0.600000
vt 1.000000 0.700000
vt 1.000000 0.800000
vt 1.000000 0.900000
vt 0.916667 0.950000
vt 0.916667 1.000000
vt 0.833333 0.950000
vt 0.833333 1.000000
vt 0.666667 0.950000
vt 0.583333 0.950000
vt 0.583333 1.000000
vt 0.666667 1.000000
vt 0.583333 0.500000
vt 0.583333 0.600000
vt 0.583333 0.700000
vt 0.583333 0.800000
vt 0.583333 0.900000
vt 0.666667 0.500000
vt 0.666667 0.600000
vt 0.666667 0.700000
vt 0.666667 0.800000
vt 0.666667 0.900000
vt 0.750000 0.500000
vt 0.750000 0.600000
vt 0.750000 0.700000
vt 0.750000 0.800000
vt 0.833333 0.500000
vt 0.833333 0.600000
vt 0.833333 0.700000
vt 0.833333 0.800000
vt 0.916667 0.500000
vt 0.882658 0.500000
vt 0.916667 0.600000
vt 0.916667 0.700000
vt 0.916667 0.800000
vt 0.833333 0.900000
vt 0.916667 0.900000
vn -0.0000 0.3122 -0.9500
vn -0.0000 0.3144 -0.9493
vn 0.2151 0.4223 -0.8806
vn 0.2117 0.4277 -0.8788
vn 0.4348 0.5444 -0.7173
vn 0.3726 0.4981 -0.7830
vn 0.2949 0.6573 0.6935
vn 0.2669 0.6812 0.6817
vn 0.1853 0.6785 0.7109
vn 0.2025 0.6661 0.7178
vn 0.0000 0.6733 0.7394
vn 0.0000 0.6740 0.7387
vn 0.3714 -0.0566 0.9268
vn 0.3962 -0.0398 0.9173
vn -0.0000 -0.0399 0.9992
vn 0.0000 -0.0597 0.9982
vn 0.4090 -0.0359 0.9118
vn -0.0000 -0.0068 1.0000
vn 0.3779 0.0434 0.9248
vn -0.0000 0.0773 0.9970
vn 0.2970 0.4109 0.8619
vn 0.0000 0.4125 0.9110
vn 0.7682 -0.0358 0.6392
vn 0.7887 -0.0456 0.6131
vn 0.8172 -0.1193 0.5638
vn 0.7212 -0.0273 0.6921
vn 0.4142 0.4136 0.8108
vn 1.0000 -0.0003 0.0081
vn 0.9951 -0.0985 -0.0104
vn 0.9686 -0.2435 -0.0512
vn 0.9608 -0.2640 -0.0852
vn 0.6933 0.0483 -0.7190
vn 0.6702 -0.1751 -0.7213
vn 0.6683 -0.3676 -0.6467
vn 0.4617 -0.2018 -0.8638
vn 0.0912 0.0844 -0.9922
vn 0.1921 -0.1755 -0.9656
vn 0.2252 0.0707 -0.9717
vn 0.1709 -0.3467 -0.9223
vn 0.1531 -0.1379 -0.9785
vn 0.1502 0.2314 -0.9612
vn 0.2834 0.2030 -0.9373
vn -0.0000 0.1087 -0.9941
vn -0.0000 -0.1800 -0.9837
vn 0.0000 -0.3143 -0.9493
vn -0.0000 -0.0790 -0.9969
vn -0.0000 0.1799 -0.9837
vn -0.2117 0.4277 -0.8788
vn -0.2151 0.4223 -0.8806
vn -0.3726 0.4981 -0.7830
vn -0.4348 0.5444 -0.7173
vn -0.2949 0.6573 0.6935
vn -0.2025 0.6661 0.7178
vn -0.1853 0.6785 0.7109
vn -0.2669 0.6812 0.6817
vn -0.3714 -0.0566 0.9268
vn -0.3962 -0.0398 0.9173
vn -0.4090 -0.0359 0.9118
vn -0.3779 0.0434 0.9248
vn -0.2970 0.4109 0.8619
vn -0.7682 -0.0358 0.6392
vn -0.7887 -0.0456 0.6131
vn -0.8172 -0.1193 0.5638
vn -0.7212 -0.0273 0.6921
vn -0.4142 0.4136 0.8108
vn -1.0000 -0.0003 0.0081
vn -0.9951 -0.0985 -0.0104
vn -0.9686 -0.2435 -0.0512
vn -0.9608 -0.2640 -0.0852
vn -0.6933 0.0483 -0.7190
vn -0.6702 -0.1751 -0.7213
vn -0.6683 -0.3676 -0.6467
vn -0.4617 -0.2018 -0.8638
vn -0.0912 0.0844 -0.9922
vn -0.2252 0.0707 -0.9717
vn -0.1921 -0.1755 -0.9656
vn -0.1709 -0.3467 -0.9223
vn -0.1531 -0.1379 -0.9785
vn -0.2834 0.2030 -0.9373
vn -0.1502 0.2314 -0.9612
usemtl Material_#46
s 1
f 74/1/1 35/2/2 2/3/3 29/4/4
f 29/4/4 2/3/3 4/5/5 30/6/6
f 31/7/7 7/8/8 9/9/9 32/10/10
f 32/10/10 9/9/9 46/11/11 79/12/12
f 8/13/13 28/14/14 73/15/15 45/16/16
f 28/14/14 27/17/17 72/18/18 73/15/15
f 27/17/17 26/19/19 71/20/20 72/18/18
f 26/19/19 25/21/21 70/22/22 71/20/20
f 6/23/23 24/24/24 28/14/14 8/13/13
f 24/24/24 23/25/25 27/17/17 28/14/14
f 23/25/25 22/26/26 26/19/19 27/17/17
f 22/26/26 21/27/27 25/21/21 26/19/19
f 5/28/28 20/29/29 24/24/24 6/23/23
f 20/29/29 19/30/30 23/25/25 24/24/24
f 19/30/30 18/31/31 22/26/26 23/25/25
f 3/32/32 17/33/33 20/29/29 5/28/28
f 17/33/33 16/34/34 19/30/30 20/29/29
f 16/34/34 15/35/35 18/31/31 19/30/30
f 1/36/36 13/37/37 33/38/38
f 13/37/37 12/39/39 16/34/34 17/33/33
f 12/39/39 11/40/40 15/35/35 16/34/34
f 11/40/40 10/41/41 14/42/42 15/35/35
f 34/43/43 47/44/44 13/37/37 1/36/36
f 47/44/44 48/45/45 12/39/39 13/37/37
f 48/45/45 49/46/46 11/40/40 12/39/39
f 49/46/46 50/47/47 10/41/41 11/40/40
f 25/21/21 32/10/10 79/12/12 70/22/22
f 21/27/27 31/7/7 32/10/10 25/21/21
f 10/41/41 29/4/4 30/6/6 14/42/42
f 50/47/47 74/1/1 29/4/4 10/41/41
f 33/38/38 13/37/37 17/33/33 3/32/32
f 74/1/1 75/48/48 37/49/49 35/2/2
f 75/48/48 76/50/50 39/51/51 37/49/49
f 77/52/52 78/53/53 44/54/54 42/55/55
f 78/53/53 79/12/12 46/11/11 44/54/54
f 43/56/56 45/16/16 73/15/15 69/57/57
f 69/57/57 73/15/15 72/18/18 68/58/58
f 68/58/58 72/18/18 71/20/20 67/59/59
f 67/59/59 71/20/20 70/22/22 66/60/60
f 41/61/61 43/56/56 69/57/57 65/62/62
f 65/62/62 69/57/57 68/58/58 64/63/63
f 64/63/63 68/58/58 67/59/59 63/64/64
f 63/64/64 67/59/59 66/60/60 62/65/65
f 40/66/66 41/61/61 65/62/62 61/67/67
f 61/67/67 65/62/62 64/63/63 60/68/68
f 60/68/68 64/63/63 63/64/64 59/69/69
f 38/70/70 40/66/66 61/67/67 58/71/71
f 58/71/71 61/67/67 60/68/68 57/72/72
f 57/72/72 60/68/68 59/69/69 56/73/73
f 36/74/74 80/75/75 54/76/76
f 54/76/76 58/71/71 57/72/72 53/77/77
f 53/77/77 57/72/72 56/73/73 52/78/78
f 52/78/78 56/73/73 55/79/79 51/80/80
f 34/43/43 36/74/74 54/76/76 47/44/44
f 47/44/44 54/76/76 53/77/77 48/45/45
f 48/45/45 53/77/77 52/78/78 49/46/46
f 49/46/46 52/78/78 51/80/80 50/47/47
f 66/60/60 70/22/22 79/12/12 78/53/53
f 62/65/65 66/60/60 78/53/53 77/52/52
f 51/80/80 55/79/79 76/50/50 75/48/48
f 50/47/47 51/80/80 75/48/48 74/1/1
f 80/75/75 38/70/70 58/71/71 54/76/76
