# Blender v2.93.3 OBJ File: ''
# www.blender.org
mtllib legL.mtl
o Base.005_Cylinder.005
v 0.057223 1.557166 -0.135124
v 0.201094 1.548701 -0.094211
v 0.247644 1.524634 -0.000002
v 0.219191 1.501062 0.077586
v 0.130639 1.483648 0.135990
v 0.153374 1.305534 0.130006
v 0.244998 1.351921 0.061226
v 0.272080 1.388762 -0.019873
v 0.244673 1.426034 -0.133274
v 0.055331 1.429080 -0.208950
v 0.082363 1.250587 0.112556
v 0.038498 1.225844 -0.060298
v 0.038104 1.288985 -0.194474
v 0.184962 1.141447 0.105844
v 0.262165 1.166282 0.073291
v 0.289207 1.186548 -0.007641
v 0.257614 1.230479 -0.147619
v 0.249449 1.329404 -0.147587
v 0.102928 1.107668 0.113562
v 0.046913 1.111766 -0.009021
v 0.070923 1.151056 -0.146053
v 0.193887 0.919235 0.083326
v 0.266478 0.926784 0.047522
v 0.293977 0.943930 -0.033803
v 0.266330 0.961418 -0.116160
v 0.183421 0.975464 -0.182118
v 0.116722 0.919987 0.079759
v 0.070517 0.945517 -0.041328
v 0.098490 0.976846 -0.162358
v 0.191884 0.755963 0.015616
v 0.251851 0.764079 -0.009175
v 0.274568 0.782513 -0.065485
v 0.251851 0.801121 -0.122326
v 0.183499 0.816004 -0.167788
v 0.128140 0.756771 0.013147
v 0.089970 0.784219 -0.070696
v 0.111470 0.817902 -0.146020
v 0.224776 0.518947 -0.040377
v 0.277903 0.537090 -0.065078
v 0.298028 0.556901 -0.121925
v 0.277903 0.568291 -0.179605
v 0.217347 0.567939 -0.226067
v 0.168302 0.507609 -0.043293
v 0.134487 0.523532 -0.128405
v 0.153037 0.557700 -0.199601
v 0.245206 0.081936 -0.050390
v 0.281928 0.082626 -0.065268
v 0.295839 0.082887 -0.103659
v 0.281928 0.082626 -0.142751
v 0.240071 0.081839 -0.171950
v 0.206171 0.081202 -0.051872
v 0.182797 0.080763 -0.106786
v 0.192379 0.081117 -0.151202
v 0.148663 0.398341 -0.233838
v 0.134465 0.382501 -0.143351
v 0.173103 0.377016 -0.038547
v 0.237630 0.384208 -0.034758
v 0.298333 0.407646 -0.205810
v 0.229142 0.405024 -0.263172
v 0.298333 0.394196 -0.064948
v 0.321328 0.403557 -0.134794
v 0.177782 1.235697 -0.232155
v 0.150499 1.430441 -0.211472
v 0.107930 1.223077 -0.227834
v 0.076113 1.333576 -0.226262
v 0.291592 1.065239 -0.020722
v 0.261972 1.087300 -0.131889
v 0.189424 1.030341 0.094585
v 0.264321 1.046533 0.060406
v 0.084707 1.063951 -0.154205
v 0.058715 1.028641 -0.025175
v 0.109825 1.013828 0.096660
v 0.182012 1.094962 -0.178263
v 0.170602 1.335335 -0.238977
v 0.253746 1.257327 0.067374
v 0.279815 1.297443 -0.014349
v 0.166490 1.237399 0.119973
v 0.115937 1.553712 -0.132441
v 0.131650 1.078911 -0.165812
v 0.246160 0.041894 -0.050390
v 0.282882 0.042585 -0.065268
v 0.296793 0.042846 -0.099062
v 0.282882 0.042585 -0.135855
v 0.241025 0.041798 -0.160456
v 0.207124 0.041161 -0.051872
v 0.183750 0.040721 -0.102189
v 0.193333 0.041075 -0.144306
v 0.299653 -0.097987 -0.110774
v 0.285742 -0.093907 -0.173394
v 0.186610 -0.100111 -0.114637
v 0.196193 -0.090999 -0.176949
v 0.338377 -0.064053 0.191945
v 0.288269 -0.064743 0.206823
v 0.359325 -0.063792 0.158151
v 0.235793 -0.065477 0.205341
v 0.207975 -0.065916 0.155024
v 0.345301 -0.100318 0.198920
v 0.292469 -0.101008 0.217302
v 0.365315 -0.100056 0.157167
v 0.236308 -0.101741 0.215471
v 0.206143 -0.102181 0.153304
v 0.231028 -0.023552 0.057998
v 0.322021 -0.029685 0.035203
v 0.325123 -0.100473 0.035508
v 0.213764 -0.038731 0.053671
v 0.266337 -0.019731 0.049847
v 0.211123 -0.103086 0.058261
v 0.303064 -0.021340 0.042143
v 0.249302 -0.098933 -0.112494
v 0.284370 -0.101137 0.155202
v 0.270210 -0.101732 0.046468
v 0.239904 -0.090300 -0.192489
v 0.023537 1.561724 -0.147683
v 0.023537 1.476496 0.156028
v 0.023537 1.422244 -0.161583
v 0.023537 1.328365 0.131310
v 0.023537 1.254231 0.120773
v 0.023537 1.222953 -0.054756
v 0.023537 1.293200 -0.152265
v 0.023537 1.346775 -0.176464
vt 0.873536 0.500000
vt 0.880938 0.500000
vt 0.876888 0.500000
vt 0.916667 0.500000
vt 0.583333 0.500000
vt 0.500000 0.500000
vt 0.500000 0.500000
vt 0.583333 0.500000
vt 0.750000 0.500000
vt 0.666667 0.500000
vt 0.666667 0.500000
vt 0.750000 0.500000
vt 0.833333 0.500000
vt 0.833333 0.500000
vt 1.000000 0.500000
vt 0.916667 0.500000
vt 0.916667 0.500000
vt 1.000000 0.500000
vt 0.833333 0.500000
vt 0.875000 0.500000
vt 0.926897 0.500000
vt 0.880229 0.500000
vt 0.666667 0.500000
vt 0.625000 0.500000
vt 0.750000 0.500000
vt 0.750000 0.500000
vt 0.583333 0.500000
vt 0.666667 0.500000
vt 0.750000 0.500000
vt 0.833333 0.500000
vt 0.750000 0.500000
vt 0.666667 0.500000
vt 0.833333 0.500000
vt 0.833333 0.500000
vt 0.750000 0.500000
vt 0.750000 0.500000
vt 0.833333 0.500000
vt 0.666667 0.500000
vt 0.583333 0.500000
vt 0.583333 0.500000
vt 0.666667 0.500000
vt 0.750000 0.500000
vt 0.833333 0.500000
vt 0.833333 0.500000
vt 0.750000 0.500000
vt 0.666667 0.500000
vt 0.666667 0.500000
vt 0.750000 0.500000
vt 0.666667 0.500000
vt 0.916667 0.500000
vt 0.916667 0.500000
vt 0.833333 0.500000
vt 0.750000 0.500000
vt 0.833333 0.500000
vt 0.583333 0.500000
vt 0.666667 0.500000
vt 0.833333 0.500000
vt 0.916667 0.500000
vt 0.666667 0.500000
vt 0.750000 0.500000
vt 0.750000 0.500000
vt 0.666667 0.500000
vt 0.833333 0.500000
vt 0.583333 0.500000
vt 0.750000 0.500000
vt 0.833333 0.500000
vt 0.833333 0.500000
vt 0.750000 0.500000
vt 0.583333 0.500000
vt 0.666667 0.500000
vt 0.666667 0.500000
vt 0.583333 0.500000
vt 0.916667 0.500000
vt 0.833333 0.500000
vt 0.833333 0.500000
vt 0.916667 0.500000
vt 0.750000 0.500000
vt 0.666667 0.500000
vt 0.666667 0.500000
vt 0.750000 0.500000
vt 0.877626 0.500000
vt 0.833333 0.500000
vt 0.750000 0.500000
vt 0.666667 0.500000
vt 0.583333 0.500000
vt 0.877963 0.500000
vt 0.882658 0.500000
vt 0.750000 0.500000
vt 0.666667 0.500000
vt 0.916667 0.500000
vt 0.833333 0.500000
vt 0.750000 0.500000
vt 0.833333 0.500000
vt 0.583333 0.500000
vt 0.666667 0.500000
vt 0.750000 0.500000
vt 0.833333 0.500000
vt 0.750000 0.500000
vt 0.750000 0.500000
vt 0.833333 0.500000
vt 0.750000 0.500000
vt 0.666667 0.500000
vt 0.824218 0.500000
vt 0.750000 0.500000
vt 0.750000 0.500000
vt 0.666667 0.500000
vt 0.583333 0.500000
vt 0.583333 0.500000
vt 0.666667 0.500000
vt 0.666667 0.500000
vt 0.666667 0.500000
vt 0.750000 0.500000
vt 0.750000 0.500000
vt 0.750000 0.500000
vt 0.750000 0.500000
vt 0.666667 0.500000
vt 0.583333 0.500000
vt 0.750000 0.500000
vt 0.750000 0.500000
vt 0.750000 0.500000
vn -0.3051 -0.1469 -0.9409
vn -0.3356 -0.2608 -0.9052
vn 0.3341 -0.1396 -0.9321
vn 0.2664 -0.1744 -0.9480
vn 0.3366 -0.0312 0.9411
vn 0.0836 -0.0876 0.9926
vn 0.0546 -0.1475 0.9876
vn 0.2845 -0.0593 0.9568
vn 0.9733 0.2256 0.0417
vn 0.7843 0.0765 0.6156
vn 0.7902 0.0796 0.6076
vn 0.9876 0.1478 0.0538
vn 0.7282 0.4330 -0.5312
vn 0.8184 0.2981 -0.4913
vn -0.4582 0.2798 -0.8436
vn -0.2285 0.4171 -0.8797
vn -0.3615 0.2766 -0.8904
vn -0.6200 0.1599 -0.7681
vn -0.7768 -0.2348 -0.5844
vn -0.7443 -0.4650 -0.4794
vn -0.7811 0.0069 -0.6244
vn -0.4454 0.0030 -0.8953
vn -0.2460 -0.3914 0.8867
vn 0.0224 -0.6949 0.7188
vn -0.2644 -0.9628 -0.0564
vn -0.8145 -0.5737 -0.0865
vn 0.2420 -0.0302 0.9698
vn 0.7634 0.0771 0.6413
vn 0.9927 0.0934 0.0761
vn -0.8494 -0.2393 -0.4703
vn -0.9832 -0.1259 0.1319
vn -0.5117 -0.1254 0.8499
vn 0.8755 0.1105 -0.4705
vn 0.8274 -0.0364 -0.5604
vn 0.9995 0.0035 0.0306
vn 0.9982 -0.0602 0.0032
vn 0.8162 -0.0250 -0.5772
vn 0.7485 -0.0533 0.6610
vn 0.2479 -0.1093 0.9626
vn 0.2124 -0.2430 0.9465
vn 0.7408 -0.1694 0.6500
vn -0.9867 -0.1456 0.0720
vn -0.7704 -0.1220 -0.6258
vn -0.6801 -0.0700 -0.7298
vn -0.9889 -0.1424 0.0430
vn -0.5307 -0.1823 0.8277
vn -0.5493 -0.2591 0.7945
vn -0.9875 -0.1555 0.0268
vn -0.5922 -0.3056 0.7456
vn 0.1781 -0.0378 -0.9833
vn 0.1498 0.0679 -0.9864
vn -0.7383 -0.0476 -0.6727
vn 0.9999 -0.0131 0.0042
vn 0.8036 0.0860 -0.5889
vn 0.1942 -0.2882 0.9377
vn 0.7345 -0.1826 0.6535
vn 0.7973 0.2135 -0.5646
vn 0.1455 0.2329 -0.9616
vn 0.7480 0.0127 0.6636
vn 0.9918 0.1276 0.0114
vn -0.9961 -0.0741 0.0475
vn -0.5914 -0.1265 0.7964
vn -0.7347 0.0828 -0.6734
vn 0.2050 -0.0711 0.9762
vn -0.9948 -0.0774 0.0657
vn -0.7444 -0.0566 -0.6653
vn -0.7460 -0.2108 -0.6317
vn -0.9915 -0.0908 0.0930
vn 0.1932 0.0054 0.9812
vn -0.5894 -0.0493 0.8063
vn -0.5653 -0.0487 0.8234
vn 0.1838 -0.0188 0.9828
vn 0.1412 -0.0123 -0.9899
vn 0.8106 0.0242 -0.5851
vn 0.7915 -0.1340 -0.5963
vn 0.1325 -0.2431 -0.9609
vn 0.9993 0.0359 -0.0057
vn 0.7502 0.0301 0.6605
vn 0.7249 -0.0069 0.6888
vn 0.9993 -0.0377 0.0010
vn 0.3480 0.1195 -0.9299
vn 0.8665 -0.0123 -0.4990
vn 0.9961 0.0496 0.0726
vn 0.7425 0.0079 0.6698
vn 0.2559 -0.0589 0.9649
vn 0.2906 0.3821 -0.8773
vn 0.2354 0.5273 -0.8164
vn -0.9958 0.0316 0.0854
vn -0.5930 0.4194 0.6873
vn 0.0961 0.0151 -0.9953
vn -0.7916 -0.0138 -0.6108
vn 0.9916 0.1213 -0.0438
vn 0.8035 0.0236 -0.5948
vn 0.1402 0.5280 0.8376
vn 0.6205 0.5213 0.5858
vn 0.7058 -0.6818 -0.1925
vn 0.6114 -0.5267 -0.5906
vn 0.8587 0.5124 0.0046
vn 0.6958 -0.6980 -0.1693
vn -0.6003 -0.5048 -0.6203
vn -0.7197 -0.6919 -0.0579
vn 0.3032 0.8989 0.3162
vn 0.0535 -0.4926 -0.8686
vn -0.6800 -0.7326 0.0319
vn -0.9083 0.3562 0.2193
vn 0.4827 0.6409 0.5968
vn 0.0896 0.6842 0.7237
vn 0.1288 -0.5613 0.8176
vn 0.5489 -0.5305 0.6460
vn -0.4601 0.5863 0.6667
vn -0.4164 -0.5319 0.7373
vn 0.8357 0.5337 0.1294
vn 0.8158 -0.5738 0.0717
vn -0.8766 0.4217 0.2318
vn -0.7534 -0.6380 0.1595
vn -0.3594 0.8500 0.3851
vn 0.0527 0.9183 0.3925
vn 0.0077 -0.9980 -0.0620
vn 0.0184 -0.9998 -0.0084
vn 0.0154 -0.9999 0.0018
usemtl Material_#46
s 1
f 79/1/1 64/2/2 62/3/3 73/4/4
f 5/5/5 114/6/6 116/7/7 6/8/8
f 3/9/9 4/10/10 7/11/11 8/12/12
f 4/10/10 5/5/5 6/8/8 7/11/11
f 2/13/13 3/9/9 8/12/12 9/14/14
f 113/15/15 1/16/16 10/17/17 115/18/18
f 13/19/19 119/20/20 120/21/21 65/22/22
f 11/23/23 117/24/24 118/25/25 12/26/26
f 12/26/26 118/25/25 119/20/20 13/19/19
f 6/8/8 11/23/23 77/27/27
f 8/12/12 7/11/11 75/28/28 76/29/29
f 13/19/19 65/22/22 64/2/2 21/30/30
f 11/23/23 12/26/26 20/31/31 19/32/32
f 9/14/14 8/12/12 76/29/29 18/33/33
f 7/11/11 6/8/8 77/27/27 75/28/28
f 12/26/26 13/19/19 21/30/30 20/31/31
f 67/34/34 66/35/35 24/36/36 25/37/37
f 69/38/38 68/39/39 22/40/40 23/41/41
f 71/42/42 70/43/43 29/44/44 28/45/45
f 68/39/39 72/46/46 27/47/47 22/40/40
f 65/22/22 120/21/21 115/18/18 10/17/17
f 66/35/35 69/38/38 23/41/41 24/36/36
f 72/46/46 71/42/42 28/45/45 27/47/47
f 21/30/30 64/2/2 79/1/1 70/43/43
f 27/47/47 28/45/45 36/48/48 35/49/49
f 29/44/44 26/50/50 34/51/51 37/52/52
f 25/37/37 24/36/36 32/53/53 33/54/54
f 23/41/41 22/40/40 30/55/55 31/56/56
f 28/45/45 29/44/44 37/52/52 36/48/48
f 22/40/40 27/47/47 35/49/49 30/55/55
f 26/50/50 25/37/37 33/54/54 34/51/51
f 24/36/36 23/41/41 31/56/56 32/53/53
f 34/51/51 33/54/54 41/57/57 42/58/58
f 32/53/53 31/56/56 39/59/59 40/60/60
f 35/49/49 36/48/48 44/61/61 43/62/62
f 37/52/52 34/51/51 42/58/58 45/63/63
f 33/54/54 32/53/53 40/60/60 41/57/57
f 31/56/56 30/55/55 38/64/64 39/59/59
f 36/48/48 37/52/52 45/63/63 44/61/61
f 30/55/55 35/49/49 43/62/62 38/64/64
f 55/65/65 54/66/66 53/67/67 52/68/68
f 57/69/69 56/70/70 51/71/71 46/72/72
f 59/73/73 58/74/74 49/75/75 50/76/76
f 61/77/77 60/78/78 47/79/79 48/80/80
f 56/70/70 55/65/65 52/68/68 51/71/71
f 54/66/66 59/73/73 50/76/76 53/67/67
f 58/74/74 61/77/77 48/80/80 49/75/75
f 60/78/78 57/69/69 46/72/72 47/79/79
f 39/59/59 38/64/64 57/69/69 60/78/78
f 41/57/57 40/60/60 61/77/77 58/74/74
f 45/63/63 42/58/58 59/73/73 54/66/66
f 43/62/62 44/61/61 55/65/65 56/70/70
f 40/60/60 39/59/59 60/78/78 61/77/77
f 42/58/58 41/57/57 58/74/74 59/73/73
f 38/64/64 43/62/62 56/70/70 57/69/69
f 44/61/61 45/63/63 54/66/66 55/65/65
f 62/3/3 74/81/81 18/33/33 17/82/82
f 19/32/32 20/31/31 71/42/42 72/46/46
f 16/83/83 15/84/84 69/38/38 66/35/35
f 14/85/85 19/32/32 72/46/46 68/39/39
f 20/31/31 21/30/30 70/43/43 71/42/42
f 15/84/84 14/85/85 68/39/39 69/38/38
f 17/82/82 16/83/83 66/35/35 67/34/34
f 70/43/43 79/1/1 26/50/50 29/44/44
f 73/4/4 67/34/34 25/37/37 26/50/50
f 10/17/17 63/86/86 74/81/81 65/22/22
f 73/4/4 62/3/3 17/82/82 67/34/34
f 65/22/22 74/81/81 62/3/3 64/2/2
f 18/33/33 74/81/81 63/86/86 9/14/14
f 11/23/23 6/8/8 116/7/7 117/24/24
f 77/27/27 11/23/23 19/32/32 14/85/85
f 18/33/33 76/29/29 16/83/83 17/82/82
f 76/29/29 75/28/28 15/84/84 16/83/83
f 75/28/28 77/27/27 14/85/85 15/84/84
f 1/16/16 78/87/87 63/86/86 10/17/17
f 78/87/87 2/13/13 9/14/14 63/86/86
f 26/50/50 79/1/1 73/4/4
f 51/71/71 52/68/68 86/88/88 85/89/89
f 53/67/67 50/76/76 84/90/90 87/91/91
f 49/75/75 48/80/80 82/92/92 83/93/93
f 47/79/79 46/72/72 80/94/94 81/95/95
f 52/68/68 53/67/67 87/91/91 86/88/88
f 46/72/72 51/71/71 85/89/89 80/94/94
f 50/76/76 49/75/75 83/93/93 84/90/90
f 48/80/80 47/79/79 81/95/95 82/92/92
f 83/93/93 82/92/92 88/96/96 89/97/97
f 88/96/96 82/92/92 103/98/98 104/99/99
f 86/88/88 87/91/91 91/100/100 90/101/101
f 82/92/92 81/95/95 108/102/102 103/98/98
f 112/103/103 91/100/100 87/91/91 84/90/90
f 86/88/88 90/101/101 107/104/104 105/105/105
f 92/106/106 93/107/107 98/108/108 97/109/109
f 93/107/107 95/110/110 100/111/111 98/108/108
f 94/112/112 92/106/106 97/109/109 99/113/113
f 95/110/110 96/114/114 101/115/115 100/111/111
f 80/94/94 85/89/89 102/116/116 106/117/117
f 85/89/89 86/88/88 105/105/105 102/116/116
f 81/95/95 80/94/94 106/117/117 108/102/102
f 109/118/118 90/101/101 91/100/100 112/103/103
f 103/98/98 108/102/102 92/106/106 94/112/112
f 108/102/102 106/117/117 93/107/107 92/106/106
f 104/99/99 103/98/98 94/112/112 99/113/113
f 102/116/116 105/105/105 96/114/114 95/110/110
f 105/105/105 107/104/104 101/115/115 96/114/114
f 106/117/117 102/116/116 95/110/110 93/107/107
f 104/99/99 111/119/119 109/118/118 88/96/96
f 107/104/104 111/119/119 110/120/120 101/115/115
f 97/109/109 98/108/108 110/120/120 99/113/113
f 109/118/118 111/119/119 107/104/104 90/101/101
f 110/120/120 111/119/119 104/99/99 99/113/113
f 89/97/97 112/103/103 84/90/90 83/93/93
f 112/103/103 89/97/97 88/96/96 109/118/118
f 110/120/120 98/108/108 100/111/111 101/115/115
