# Blender v2.93.3 OBJ File: ''
# www.blender.org
mtllib legR.mtl
o Base.004_Cylinder.003
v 0.023537 1.561724 -0.147683
v -0.010149 1.557166 -0.135124
v -0.154019 1.548701 -0.094211
v -0.200570 1.524634 -0.000002
v -0.172116 1.501062 0.077586
v -0.083565 1.483648 0.135990
v 0.023537 1.476496 0.156028
v -0.106299 1.305534 0.130006
v -0.197923 1.351921 0.061226
v -0.225006 1.388762 -0.019873
v -0.197599 1.426034 -0.133274
v -0.008256 1.429080 -0.208950
v 0.023537 1.422244 -0.161583
v 0.023537 1.328365 0.131310
v -0.035288 1.250587 0.112556
v 0.008576 1.225844 -0.060298
v 0.008970 1.288985 -0.194474
v 0.023537 1.254231 0.120773
v 0.023537 1.222953 -0.054756
v 0.023537 1.293200 -0.152265
v -0.137887 1.141447 0.105844
v -0.215091 1.166282 0.073291
v -0.242133 1.186548 -0.007641
v -0.210539 1.230479 -0.147619
v -0.202375 1.329404 -0.147587
v -0.055854 1.107668 0.113562
v 0.000162 1.111766 -0.009021
v -0.023849 1.151056 -0.146053
v -0.146812 0.919235 0.083326
v -0.219403 0.926784 0.047522
v -0.246902 0.943930 -0.033803
v -0.219255 0.961418 -0.116160
v -0.136347 0.975464 -0.182118
v -0.069648 0.919987 0.079759
v -0.023443 0.945517 -0.041328
v -0.051415 0.976846 -0.162358
v -0.144810 0.755963 0.015616
v -0.204777 0.764079 -0.009175
v -0.227494 0.782513 -0.065485
v -0.204777 0.801121 -0.122326
v -0.136425 0.816004 -0.167788
v -0.081065 0.756771 0.013147
v -0.042896 0.784219 -0.070696
v -0.064396 0.817902 -0.146020
v -0.177701 0.518947 -0.040377
v -0.230828 0.537090 -0.065078
v -0.250954 0.556901 -0.121925
v -0.230828 0.568291 -0.179605
v -0.170273 0.567939 -0.226067
v -0.121228 0.507609 -0.043293
v -0.087412 0.523532 -0.128405
v -0.105962 0.557700 -0.199601
v -0.198132 0.081936 -0.050390
v -0.234854 0.082626 -0.065268
v -0.248765 0.082887 -0.103659
v -0.234854 0.082626 -0.142751
v -0.192997 0.081839 -0.171950
v -0.159096 0.081202 -0.051872
v -0.135722 0.080763 -0.106786
v -0.145305 0.081117 -0.151202
v -0.101589 0.398341 -0.233838
v -0.087391 0.382501 -0.143351
v -0.126029 0.377016 -0.038547
v -0.190556 0.384208 -0.034758
v -0.251258 0.407646 -0.205810
v -0.182068 0.405024 -0.263172
v -0.251258 0.394196 -0.064948
v -0.274254 0.403557 -0.134794
v -0.130707 1.235697 -0.232155
v -0.103424 1.430441 -0.211472
v -0.060855 1.223077 -0.227834
v -0.029038 1.333576 -0.226262
v -0.244518 1.065239 -0.020722
v -0.214897 1.087300 -0.131889
v -0.142350 1.030341 0.094585
v -0.217247 1.046533 0.060406
v -0.037632 1.063951 -0.154205
v -0.011640 1.028641 -0.025175
v -0.062751 1.013828 0.096660
v -0.134937 1.094962 -0.178263
v 0.023537 1.346775 -0.176464
v -0.123528 1.335335 -0.238977
v -0.206671 1.257327 0.067374
v -0.232740 1.297443 -0.014349
v -0.119416 1.237399 0.119973
v -0.068862 1.553712 -0.132441
v -0.084576 1.078911 -0.165812
v -0.199085 0.041894 -0.050390
v -0.235807 0.042585 -0.065268
v -0.249718 0.042846 -0.099062
v -0.235807 0.042585 -0.135855
v -0.193950 0.041798 -0.160456
v -0.160049 0.041161 -0.051872
v -0.136675 0.040721 -0.102189
v -0.146258 0.041075 -0.144306
v -0.252578 -0.097987 -0.110774
v -0.238667 -0.093907 -0.173394
v -0.139536 -0.100111 -0.114637
v -0.149118 -0.090999 -0.176949
v -0.291303 -0.064053 0.191945
v -0.241195 -0.064743 0.206823
v -0.312250 -0.063792 0.158151
v -0.188718 -0.065477 0.205341
v -0.160901 -0.065916 0.155024
v -0.298226 -0.100318 0.198920
v -0.245394 -0.101008 0.217302
v -0.318240 -0.100056 0.157167
v -0.189233 -0.101741 0.215471
v -0.159068 -0.102181 0.153304
v -0.183953 -0.023552 0.057998
v -0.274946 -0.029685 0.035203
v -0.278049 -0.100473 0.035508
v -0.166689 -0.038731 0.053671
v -0.219262 -0.019731 0.049847
v -0.164048 -0.103086 0.058261
v -0.255990 -0.021340 0.042143
v -0.202227 -0.098933 -0.112494
v -0.237295 -0.101137 0.155202
v -0.223135 -0.101732 0.046468
v -0.192829 -0.090300 -0.192489
vt 0.873536 0.500000
vt 0.916667 0.500000
vt 0.876888 0.500000
vt 0.880938 0.500000
vt 0.583333 0.500000
vt 0.583333 0.500000
vt 0.500000 0.500000
vt 0.500000 0.500000
vt 0.750000 0.500000
vt 0.750000 0.500000
vt 0.666667 0.500000
vt 0.666667 0.500000
vt 0.833333 0.500000
vt 0.833333 0.500000
vt 1.000000 0.500000
vt 1.000000 0.500000
vt 0.916667 0.500000
vt 0.916667 0.500000
vt 0.833333 0.500000
vt 0.880229 0.500000
vt 0.926897 0.500000
vt 0.875000 0.500000
vt 0.666667 0.500000
vt 0.750000 0.500000
vt 0.750000 0.500000
vt 0.625000 0.500000
vt 0.583333 0.500000
vt 0.750000 0.500000
vt 0.666667 0.500000
vt 0.833333 0.500000
vt 0.666667 0.500000
vt 0.750000 0.500000
vt 0.833333 0.500000
vt 0.833333 0.500000
vt 0.833333 0.500000
vt 0.750000 0.500000
vt 0.750000 0.500000
vt 0.666667 0.500000
vt 0.666667 0.500000
vt 0.583333 0.500000
vt 0.583333 0.500000
vt 0.750000 0.500000
vt 0.750000 0.500000
vt 0.833333 0.500000
vt 0.833333 0.500000
vt 0.666667 0.500000
vt 0.666667 0.500000
vt 0.666667 0.500000
vt 0.750000 0.500000
vt 0.833333 0.500000
vt 0.916667 0.500000
vt 0.916667 0.500000
vt 0.833333 0.500000
vt 0.750000 0.500000
vt 0.666667 0.500000
vt 0.583333 0.500000
vt 0.916667 0.500000
vt 0.833333 0.500000
vt 0.750000 0.500000
vt 0.666667 0.500000
vt 0.666667 0.500000
vt 0.750000 0.500000
vt 0.833333 0.500000
vt 0.583333 0.500000
vt 0.750000 0.500000
vt 0.750000 0.500000
vt 0.833333 0.500000
vt 0.833333 0.500000
vt 0.583333 0.500000
vt 0.583333 0.500000
vt 0.666667 0.500000
vt 0.666667 0.500000
vt 0.916667 0.500000
vt 0.916667 0.500000
vt 0.833333 0.500000
vt 0.833333 0.500000
vt 0.750000 0.500000
vt 0.750000 0.500000
vt 0.666667 0.500000
vt 0.666667 0.500000
vt 0.833333 0.500000
vt 0.877626 0.500000
vt 0.750000 0.500000
vt 0.666667 0.500000
vt 0.583333 0.500000
vt 0.877963 0.500000
vt 0.882658 0.500000
vt 0.666667 0.500000
vt 0.750000 0.500000
vt 0.833333 0.500000
vt 0.916667 0.500000
vt 0.833333 0.500000
vt 0.750000 0.500000
vt 0.666667 0.500000
vt 0.583333 0.500000
vt 0.833333 0.500000
vt 0.750000 0.500000
vt 0.750000 0.500000
vt 0.750000 0.500000
vt 0.750000 0.500000
vt 0.833333 0.500000
vt 0.666667 0.500000
vt 0.824218 0.500000
vt 0.750000 0.500000
vt 0.750000 0.500000
vt 0.666667 0.500000
vt 0.666667 0.500000
vt 0.583333 0.500000
vt 0.583333 0.500000
vt 0.666667 0.500000
vt 0.666667 0.500000
vt 0.750000 0.500000
vt 0.750000 0.500000
vt 0.750000 0.500000
vt 0.750000 0.500000
vt 0.583333 0.500000
vt 0.666667 0.500000
vt 0.750000 0.500000
vt 0.750000 0.500000
vt 0.750000 0.500000
vn 0.3051 -0.1469 -0.9409
vn -0.2664 -0.1744 -0.9480
vn -0.3341 -0.1396 -0.9321
vn 0.3356 -0.2608 -0.9052
vn -0.3366 -0.0312 0.9411
vn -0.2845 -0.0593 0.9568
vn -0.0546 -0.1475 0.9876
vn -0.0836 -0.0876 0.9926
vn -0.9733 0.2256 0.0417
vn -0.9876 0.1478 0.0538
vn -0.7902 0.0796 0.6076
vn -0.7843 0.0765 0.6156
vn -0.7282 0.4330 -0.5312
vn -0.8184 0.2981 -0.4913
vn 0.4582 0.2798 -0.8436
vn 0.6200 0.1599 -0.7681
vn 0.3615 0.2766 -0.8904
vn 0.2285 0.4171 -0.8797
vn 0.7768 -0.2348 -0.5844
vn 0.4454 0.0030 -0.8953
vn 0.7811 0.0069 -0.6244
vn 0.7443 -0.4650 -0.4794
vn 0.2460 -0.3914 0.8867
vn 0.8145 -0.5737 -0.0865
vn 0.2644 -0.9628 -0.0564
vn -0.0224 -0.6949 0.7188
vn -0.2420 -0.0302 0.9698
vn -0.9927 0.0934 0.0761
vn -0.7634 0.0771 0.6413
vn 0.8494 -0.2393 -0.4703
vn 0.5117 -0.1254 0.8499
vn 0.9832 -0.1259 0.1319
vn -0.8755 0.1105 -0.4705
vn -0.8274 -0.0364 -0.5604
vn -0.8162 -0.0250 -0.5772
vn -0.9982 -0.0602 0.0032
vn -0.9995 0.0035 0.0306
vn -0.7485 -0.0533 0.6610
vn -0.7408 -0.1694 0.6500
vn -0.2124 -0.2430 0.9465
vn -0.2479 -0.1093 0.9626
vn 0.9867 -0.1456 0.0720
vn 0.9889 -0.1424 0.0430
vn 0.6801 -0.0700 -0.7298
vn 0.7704 -0.1220 -0.6258
vn 0.5493 -0.2591 0.7945
vn 0.5307 -0.1823 0.8277
vn 0.5922 -0.3056 0.7456
vn 0.9875 -0.1555 0.0268
vn 0.7383 -0.0476 -0.6727
vn -0.1498 0.0679 -0.9864
vn -0.1781 -0.0378 -0.9833
vn -0.8036 0.0860 -0.5889
vn -0.9999 -0.0131 0.0042
vn -0.7345 -0.1826 0.6535
vn -0.1942 -0.2882 0.9377
vn -0.1455 0.2329 -0.9616
vn -0.7973 0.2135 -0.5646
vn -0.9918 0.1276 0.0114
vn -0.7480 0.0127 0.6636
vn 0.5914 -0.1265 0.7964
vn 0.9961 -0.0741 0.0475
vn 0.7347 0.0828 -0.6734
vn -0.2050 -0.0711 0.9762
vn 0.9948 -0.0774 0.0657
vn 0.9915 -0.0908 0.0930
vn 0.7460 -0.2108 -0.6317
vn 0.7444 -0.0566 -0.6653
vn -0.1932 0.0054 0.9812
vn -0.1838 -0.0188 0.9828
vn 0.5653 -0.0487 0.8234
vn 0.5894 -0.0493 0.8063
vn -0.1412 -0.0123 -0.9899
vn -0.1325 -0.2431 -0.9609
vn -0.7915 -0.1340 -0.5963
vn -0.8106 0.0242 -0.5851
vn -0.9993 0.0359 -0.0057
vn -0.9993 -0.0377 0.0010
vn -0.7249 -0.0069 0.6888
vn -0.7502 0.0301 0.6605
vn -0.8665 -0.0123 -0.4990
vn -0.3480 0.1195 -0.9299
vn -0.9961 0.0496 0.0726
vn -0.7425 0.0079 0.6698
vn -0.2559 -0.0589 0.9649
vn -0.2906 0.3821 -0.8773
vn -0.2354 0.5273 -0.8164
vn 0.5930 0.4194 0.6873
vn 0.9958 0.0316 0.0854
vn 0.7916 -0.0138 -0.6108
vn -0.0961 0.0151 -0.9953
vn -0.8035 0.0236 -0.5948
vn -0.9916 0.1213 -0.0438
vn -0.6205 0.5213 0.5858
vn -0.1402 0.5280 0.8376
vn -0.6114 -0.5267 -0.5906
vn -0.7058 -0.6818 -0.1925
vn -0.6958 -0.6980 -0.1693
vn -0.8587 0.5124 0.0046
vn 0.7197 -0.6919 -0.0579
vn 0.6003 -0.5048 -0.6203
vn -0.3032 0.8989 0.3162
vn -0.0535 -0.4926 -0.8686
vn 0.9083 0.3562 0.2193
vn 0.6800 -0.7326 0.0319
vn -0.4827 0.6409 0.5968
vn -0.5489 -0.5305 0.6460
vn -0.1288 -0.5613 0.8176
vn -0.0896 0.6842 0.7237
vn 0.4164 -0.5319 0.7373
vn 0.4601 0.5863 0.6667
vn -0.8357 0.5337 0.1294
vn -0.8158 -0.5738 0.0717
vn 0.7534 -0.6380 0.1595
vn 0.8766 0.4217 0.2318
vn -0.0527 0.9183 0.3925
vn 0.3594 0.8500 0.3851
vn -0.0077 -0.9980 -0.0620
vn -0.0184 -0.9998 -0.0084
vn -0.0154 -0.9999 0.0018
usemtl Material_#46
s 1
f 87/1/1 80/2/2 69/3/3 71/4/4
f 6/5/5 8/6/6 14/7/7 7/8/8
f 4/9/9 10/10/10 9/11/11 5/12/12
f 5/12/12 9/11/11 8/6/6 6/5/5
f 3/13/13 11/14/14 10/10/10 4/9/9
f 1/15/15 13/16/16 12/17/17 2/18/18
f 17/19/19 72/20/20 81/21/21 20/22/22
f 15/23/23 16/24/24 19/25/25 18/26/26
f 16/24/24 17/19/19 20/22/22 19/25/25
f 8/6/6 85/27/27 15/23/23
f 10/10/10 84/28/28 83/29/29 9/11/11
f 17/19/19 28/30/30 71/4/4 72/20/20
f 15/23/23 26/31/31 27/32/32 16/24/24
f 11/14/14 25/33/33 84/28/28 10/10/10
f 9/11/11 83/29/29 85/27/27 8/6/6
f 16/24/24 27/32/32 28/30/30 17/19/19
f 74/34/34 32/35/35 31/36/36 73/37/37
f 76/38/38 30/39/39 29/40/40 75/41/41
f 78/42/42 35/43/43 36/44/44 77/45/45
f 75/41/41 29/40/40 34/46/46 79/47/47
f 72/20/20 12/17/17 13/16/16 81/21/21
f 73/37/37 31/36/36 30/39/39 76/38/38
f 79/47/47 34/46/46 35/43/43 78/42/42
f 28/30/30 77/45/45 87/1/1 71/4/4
f 34/46/46 42/48/48 43/49/49 35/43/43
f 36/44/44 44/50/50 41/51/51 33/52/52
f 32/35/35 40/53/53 39/54/54 31/36/36
f 30/39/39 38/55/55 37/56/56 29/40/40
f 35/43/43 43/49/49 44/50/50 36/44/44
f 29/40/40 37/56/56 42/48/48 34/46/46
f 33/52/52 41/51/51 40/53/53 32/35/35
f 31/36/36 39/54/54 38/55/55 30/39/39
f 41/51/51 49/57/57 48/58/58 40/53/53
f 39/54/54 47/59/59 46/60/60 38/55/55
f 42/48/48 50/61/61 51/62/62 43/49/49
f 44/50/50 52/63/63 49/57/57 41/51/51
f 40/53/53 48/58/58 47/59/59 39/54/54
f 38/55/55 46/60/60 45/64/64 37/56/56
f 43/49/49 51/62/62 52/63/63 44/50/50
f 37/56/56 45/64/64 50/61/61 42/48/48
f 62/65/65 59/66/66 60/67/67 61/68/68
f 64/69/69 53/70/70 58/71/71 63/72/72
f 66/73/73 57/74/74 56/75/75 65/76/76
f 68/77/77 55/78/78 54/79/79 67/80/80
f 63/72/72 58/71/71 59/66/66 62/65/65
f 61/68/68 60/67/67 57/74/74 66/73/73
f 65/76/76 56/75/75 55/78/78 68/77/77
f 67/80/80 54/79/79 53/70/70 64/69/69
f 46/60/60 67/80/80 64/69/69 45/64/64
f 48/58/58 65/76/76 68/77/77 47/59/59
f 52/63/63 61/68/68 66/73/73 49/57/57
f 50/61/61 63/72/72 62/65/65 51/62/62
f 47/59/59 68/77/77 67/80/80 46/60/60
f 49/57/57 66/73/73 65/76/76 48/58/58
f 45/64/64 64/69/69 63/72/72 50/61/61
f 51/62/62 62/65/65 61/68/68 52/63/63
f 69/3/3 24/81/81 25/33/33 82/82/82
f 26/31/31 79/47/47 78/42/42 27/32/32
f 23/83/83 73/37/37 76/38/38 22/84/84
f 21/85/85 75/41/41 79/47/47 26/31/31
f 27/32/32 78/42/42 77/45/45 28/30/30
f 22/84/84 76/38/38 75/41/41 21/85/85
f 24/81/81 74/34/34 73/37/37 23/83/83
f 77/45/45 36/44/44 33/52/52 87/1/1
f 80/2/2 33/52/52 32/35/35 74/34/34
f 12/17/17 72/20/20 82/82/82 70/86/86
f 80/2/2 74/34/34 24/81/81 69/3/3
f 72/20/20 71/4/4 69/3/3 82/82/82
f 25/33/33 11/14/14 70/86/86 82/82/82
f 15/23/23 18/26/26 14/7/7 8/6/6
f 85/27/27 21/85/85 26/31/31 15/23/23
f 25/33/33 24/81/81 23/83/83 84/28/28
f 84/28/28 23/83/83 22/84/84 83/29/29
f 83/29/29 22/84/84 21/85/85 85/27/27
f 2/18/18 12/17/17 70/86/86 86/87/87
f 86/87/87 70/86/86 11/14/14 3/13/13
f 33/52/52 80/2/2 87/1/1
f 58/71/71 93/88/88 94/89/89 59/66/66
f 60/67/67 95/90/90 92/91/91 57/74/74
f 56/75/75 91/92/92 90/93/93 55/78/78
f 54/79/79 89/94/94 88/95/95 53/70/70
f 59/66/66 94/89/89 95/90/90 60/67/67
f 53/70/70 88/95/95 93/88/88 58/71/71
f 57/74/74 92/91/91 91/92/92 56/75/75
f 55/78/78 90/93/93 89/94/94 54/79/79
f 91/92/92 97/96/96 96/97/97 90/93/93
f 96/97/97 112/98/98 111/99/99 90/93/93
f 94/89/89 98/100/100 99/101/101 95/90/90
f 90/93/93 111/99/99 116/102/102 89/94/94
f 120/103/103 92/91/91 95/90/90 99/101/101
f 94/89/89 113/104/104 115/105/105 98/100/100
f 100/106/106 105/107/107 106/108/108 101/109/109
f 101/109/109 106/108/108 108/110/110 103/111/111
f 102/112/112 107/113/113 105/107/107 100/106/106
f 103/111/111 108/110/110 109/114/114 104/115/115
f 88/95/95 114/116/116 110/117/117 93/88/88
f 93/88/88 110/117/117 113/104/104 94/89/89
f 89/94/94 116/102/102 114/116/116 88/95/95
f 117/118/118 120/103/103 99/101/101 98/100/100
f 111/99/99 102/112/112 100/106/106 116/102/102
f 116/102/102 100/106/106 101/109/109 114/116/116
f 112/98/98 107/113/113 102/112/112 111/99/99
f 110/117/117 103/111/111 104/115/115 113/104/104
f 113/104/104 104/115/115 109/114/114 115/105/105
f 114/116/116 101/109/109 103/111/111 110/117/117
f 112/98/98 96/97/97 117/118/118 119/119/119
f 115/105/105 109/114/114 118/120/120 119/119/119
f 105/107/107 107/113/113 118/120/120 106/108/108
f 117/118/118 98/100/100 115/105/105 119/119/119
f 118/120/120 107/113/113 112/98/98 119/119/119
f 97/96/96 91/92/92 92/91/91 120/103/103
f 120/103/103 117/118/118 96/97/97 97/96/96
f 118/120/120 109/114/114 108/110/110 106/108/108
