# Blender v2.93.3 OBJ File: ''
# www.blender.org
mtllib Plane.mtl
o Plane
v -1.000000 0.000000 1.000000
v 1.000000 0.000000 1.000000
v -1.000000 0.026324 -1.000000
v 1.000000 0.000000 -1.000000
v -1.000000 0.000000 0.000000
v 0.000000 0.000000 1.000000
v 1.000000 0.000000 0.000000
v 0.000000 0.000000 -1.000000
v 0.000000 0.378726 0.000000
v -1.000000 0.000000 0.500000
v 0.500000 0.000000 1.000000
v 1.000000 0.000000 -0.500000
v -0.500000 0.026324 -1.000000
v -1.000000 0.026324 -0.500000
v -0.500000 0.092201 1.000000
v 1.000000 0.000000 0.500000
v 0.500000 0.129019 -1.000000
v 0.000000 0.000000 -0.500000
v 0.000000 0.000000 0.500000
v -0.500000 0.000000 0.000000
v 0.500000 0.000000 0.000000
v 0.500000 0.000000 0.500000
v -0.500000 0.092201 0.500000
v -0.500000 0.026324 -0.500000
v 0.500000 0.129019 -0.500000
v -1.000000 0.000000 0.750000
v 0.750000 0.000000 1.000000
v 1.000000 0.000000 -0.750000
v -0.750000 0.079648 -1.000000
v -1.000000 0.000000 -0.250000
v -0.250000 0.030473 1.000000
v 1.000000 0.000000 0.250000
v 0.250000 0.042641 -1.000000
v 0.000000 0.000000 -0.750000
v 0.000000 0.169005 0.250000
v -0.750000 0.000000 0.000000
v 0.250000 0.169005 0.000000
v -1.000000 0.000000 0.250000
v 0.250000 0.000000 1.000000
v 1.000000 0.000000 -0.250000
v -0.250000 0.000000 -1.000000
v -1.000000 0.079648 -0.750000
v -0.750000 0.030473 1.000000
v 1.000000 0.000000 0.750000
v 0.750000 0.042641 -1.000000
v 0.000000 0.169005 -0.250000
v 0.000000 0.000000 0.750000
v -0.250000 0.169005 0.000000
v 0.750000 0.000000 0.000000
v 0.500000 0.000000 0.250000
v 0.500000 0.000000 0.750000
v 0.250000 0.000000 0.500000
v 0.750000 0.000000 0.500000
v -0.500000 0.000000 0.250000
v -0.500000 0.206614 0.750000
v -0.750000 0.030473 0.500000
v -0.250000 0.030473 0.500000
v -0.500000 0.079648 -0.750000
v -0.500000 0.000000 -0.250000
v -0.750000 0.079648 -0.500000
v -0.250000 0.000000 -0.500000
v 0.500000 0.289121 -0.750000
v 0.500000 0.000000 -0.250000
v 0.250000 0.042641 -0.500000
v 0.750000 0.042641 -0.500000
v 0.750000 0.000000 -0.250000
v 0.250000 0.055857 -0.250000
v 0.250000 0.129019 -0.750000
v -0.250000 0.055857 -0.250000
v -0.750000 0.000000 -0.250000
v -0.750000 0.178485 -0.750000
v -0.250000 0.092201 0.750000
v -0.750000 0.092201 0.750000
v -0.750000 0.000000 0.250000
v 0.750000 0.000000 0.750000
v 0.250000 0.000000 0.750000
v 0.250000 0.055857 0.250000
v 0.750000 0.000000 0.250000
v -0.250000 0.055857 0.250000
v -0.250000 0.000000 -0.750000
v 0.750000 0.129019 -0.750000
vt 0.875000 0.875000
vt 1.000000 0.875000
vt 1.000000 1.000000
vt 0.875000 1.000000
vt 0.375000 0.875000
vt 0.500000 0.875000
vt 0.500000 1.000000
vt 0.375000 1.000000
vt 0.375000 0.375000
vt 0.500000 0.375000
vt 0.500000 0.500000
vt 0.375000 0.500000
vt 0.875000 0.375000
vt 1.000000 0.375000
vt 1.000000 0.500000
vt 0.875000 0.500000
vt 0.625000 0.375000
vt 0.750000 0.375000
vt 0.750000 0.500000
vt 0.625000 0.500000
vt 0.625000 0.125000
vt 0.750000 0.125000
vt 0.750000 0.250000
vt 0.625000 0.250000
vt 0.875000 0.125000
vt 1.000000 0.125000
vt 1.000000 0.250000
vt 0.875000 0.250000
vt 0.125000 0.375000
vt 0.250000 0.375000
vt 0.250000 0.500000
vt 0.125000 0.500000
vt 0.125000 0.125000
vt 0.250000 0.125000
vt 0.250000 0.250000
vt 0.125000 0.250000
vt 0.375000 0.125000
vt 0.500000 0.125000
vt 0.500000 0.250000
vt 0.375000 0.250000
vt 0.125000 0.875000
vt 0.250000 0.875000
vt 0.250000 1.000000
vt 0.125000 1.000000
vt 0.125000 0.625000
vt 0.250000 0.625000
vt 0.250000 0.750000
vt 0.125000 0.750000
vt 0.375000 0.625000
vt 0.500000 0.625000
vt 0.500000 0.750000
vt 0.375000 0.750000
vt 0.625000 0.875000
vt 0.750000 0.875000
vt 0.750000 1.000000
vt 0.625000 1.000000
vt 0.625000 0.625000
vt 0.750000 0.625000
vt 0.750000 0.750000
vt 0.625000 0.750000
vt 0.875000 0.625000
vt 1.000000 0.625000
vt 1.000000 0.750000
vt 0.875000 0.750000
vt 0.000000 0.625000
vt 0.000000 0.750000
vt 0.000000 0.500000
vt 0.000000 0.875000
vt 0.000000 1.000000
vt 0.250000 0.000000
vt 0.375000 0.000000
vt 0.500000 0.000000
vt 0.000000 0.125000
vt 0.000000 0.250000
vt 0.000000 0.000000
vt 0.125000 0.000000
vt 0.000000 0.375000
vt 0.750000 0.000000
vt 0.875000 0.000000
vt 1.000000 0.000000
vt 0.625000 0.000000
vn 0.3205 0.9334 -0.1613
vn 0.0000 1.0000 0.0000
vn -0.4768 0.7384 0.4768
vn 0.4017 0.8932 0.2021
vn -0.3153 0.8951 -0.3153
vn 0.2366 0.9643 -0.1190
vn 0.2795 0.9185 -0.2795
vn 0.1038 0.9730 0.2062
vn -0.2021 0.8932 -0.4017
vn -0.4044 0.8203 -0.4044
vn -0.0594 0.9725 0.2252
vn 0.0847 0.9928 0.0847
vn 0.1613 0.9334 0.3205
vn 0.1313 0.9314 -0.3394
vn 0.4768 0.7384 -0.4768
vn 0.4017 0.8932 -0.2021
vn -0.3205 0.9334 -0.1613
vn -0.3205 0.9334 0.1613
vn -0.4044 0.8203 0.4044
vn -0.0589 0.9965 -0.0589
vn -0.4017 0.8932 -0.2021
vn -0.4768 0.7384 -0.4768
vn -0.1038 0.9730 0.2062
vn -0.2795 0.9185 -0.2795
vn -0.2795 0.9185 0.2795
vn 0.2795 0.9185 0.2795
vn 0.3153 0.8951 -0.3153
vn 0.3153 0.8951 0.3153
vn 0.2366 0.9643 0.1190
vn -0.2366 0.9643 -0.1190
vn -0.2366 0.9643 0.1190
vn -0.3153 0.8951 0.3153
vn -0.0607 0.9963 -0.0607
vn -0.1190 0.9643 -0.2366
vn 0.4768 0.7384 0.4768
vn 0.2021 0.8932 0.4017
vn 0.1103 0.9877 0.1103
vn -0.4017 0.8932 0.2021
vn 0.0116 0.9911 -0.1324
vn -0.1523 0.9212 0.3581
vn 0.2062 0.9730 -0.1038
vn 0.2062 0.9730 0.1038
vn 0.4044 0.8203 -0.4044
vn 0.4044 0.8203 0.4044
vn 0.3205 0.9334 0.1613
usemtl None
s off
f 81/1/1 28/2/1 4/3/1 45/4/1
f 80/5/2 34/6/2 8/7/2 41/8/2
f 79/9/3 35/10/3 9/11/3 48/12/3
f 78/13/2 32/14/2 7/15/2 49/16/2
f 77/17/4 50/18/4 21/19/4 37/20/4
f 76/21/2 51/22/2 22/23/2 52/24/2
f 75/25/2 44/26/2 16/27/2 53/28/2
f 74/29/2 54/30/2 20/31/2 36/32/2
f 73/33/5 55/34/5 23/35/5 56/36/5
f 72/37/6 47/38/6 19/39/6 57/40/6
f 71/41/7 58/42/7 13/43/7 29/44/7
f 70/45/8 59/46/8 24/47/8 60/48/8
f 69/49/9 46/50/9 18/51/9 61/52/9
f 68/53/10 62/54/10 17/55/10 33/56/10
f 67/57/11 63/58/11 25/59/11 64/60/11
f 66/61/12 40/62/12 12/63/12 65/64/12
f 63/58/13 66/61/13 65/64/13 25/59/13
f 21/19/2 49/16/2 66/61/2 63/58/2
f 49/16/2 7/15/2 40/62/2 66/61/2
f 46/50/14 67/57/14 64/60/14 18/51/14
f 9/11/15 37/20/15 67/57/15 46/50/15
f 37/20/16 21/19/16 63/58/16 67/57/16
f 34/6/17 68/53/17 33/56/17 8/7/17
f 18/51/18 64/60/18 68/53/18 34/6/18
f 64/60/19 25/59/19 62/54/19 68/53/19
f 59/46/20 69/49/20 61/52/20 24/47/20
f 20/31/21 48/12/21 69/49/21 59/46/21
f 48/12/22 9/11/22 46/50/22 69/49/22
f 30/65/23 70/45/23 60/48/23 14/66/23
f 5/67/2 36/32/2 70/45/2 30/65/2
f 36/32/2 20/31/2 59/46/2 70/45/2
f 42/68/24 71/41/24 29/44/24 3/69/24
f 14/66/25 60/48/25 71/41/25 42/68/25
f 60/48/26 24/47/26 58/42/26 71/41/26
f 55/34/27 72/37/27 57/40/27 23/35/27
f 15/70/28 31/71/28 72/37/28 55/34/28
f 31/71/29 6/72/29 47/38/29 72/37/29
f 26/73/30 73/33/30 56/36/30 10/74/30
f 1/75/31 43/76/31 73/33/31 26/73/31
f 43/76/32 15/70/32 55/34/32 73/33/32
f 38/77/2 74/29/2 36/32/2 5/67/2
f 10/74/33 56/36/33 74/29/33 38/77/33
f 56/36/34 23/35/34 54/30/34 74/29/34
f 51/22/2 75/25/2 53/28/2 22/23/2
f 11/78/2 27/79/2 75/25/2 51/22/2
f 27/79/2 2/80/2 44/26/2 75/25/2
f 47/38/2 76/21/2 52/24/2 19/39/2
f 6/72/2 39/81/2 76/21/2 47/38/2
f 39/81/2 11/78/2 51/22/2 76/21/2
f 35/10/35 77/17/35 37/20/35 9/11/35
f 19/39/36 52/24/36 77/17/36 35/10/36
f 52/24/37 22/23/37 50/18/37 77/17/37
f 50/18/2 78/13/2 49/16/2 21/19/2
f 22/23/2 53/28/2 78/13/2 50/18/2
f 53/28/2 16/27/2 32/14/2 78/13/2
f 54/30/38 79/9/38 48/12/38 20/31/38
f 23/35/39 57/40/39 79/9/39 54/30/39
f 57/40/40 19/39/40 35/10/40 79/9/40
f 58/42/41 80/5/41 41/8/41 13/43/41
f 24/47/42 61/52/42 80/5/42 58/42/42
f 61/52/2 18/51/2 34/6/2 80/5/2
f 62/54/43 81/1/43 45/4/43 17/55/43
f 25/59/44 65/64/44 81/1/44 62/54/44
f 65/64/45 12/63/45 28/2/45 81/1/45
