# Blender v2.93.3 OBJ File: ''
# www.blender.org
mtllib upperArmR.mtl
o Ch46.005_Mesh.005
v -0.869226 5.120220 -0.077615
v -0.880120 5.143662 -0.226265
v -1.243761 5.187486 -0.199395
v -1.240471 5.147499 -0.077901
v -0.877735 5.289633 -0.295317
v -1.238913 5.304161 -0.257903
v -0.873555 5.423206 -0.215610
v -1.230921 5.416457 -0.195561
v -0.870471 5.465681 -0.078190
v -1.227304 5.443990 -0.077236
v -0.867211 5.400747 0.041697
v -1.228169 5.398186 0.032963
v -0.865553 5.283514 0.079663
v -1.230632 5.291884 0.059362
v -0.863698 5.174765 0.036001
v -1.235311 5.201360 0.022704
v -0.680743 5.127476 0.059517
v -0.679988 5.073211 -0.065918
v -0.694036 5.103338 -0.230387
v -0.699061 5.257919 -0.321002
v -0.707229 5.419325 -0.247979
v -0.704444 5.462303 -0.081372
v -0.695269 5.374970 0.058717
v -0.688861 5.246065 0.095900
v -1.491595 5.200958 -0.188595
v -1.489532 5.161111 -0.076641
v -1.485842 5.305416 -0.232784
v -1.478529 5.402856 -0.178567
v -1.475446 5.433746 -0.075088
v -1.476425 5.379780 0.017319
v -1.481139 5.289795 0.041380
v -1.485437 5.212132 0.015282
v -1.087983 5.141418 -0.079054
v -1.242980 5.155890 -0.142554
v -1.093914 5.172804 -0.211384
v -0.875349 5.117305 -0.151715
v -1.242165 5.238718 -0.240662
v -1.090132 5.302524 -0.275883
v -0.880319 5.207702 -0.279469
v -1.234938 5.370196 -0.242187
v -1.082806 5.421458 -0.202740
v -0.875207 5.366327 -0.268144
v -1.228414 5.439407 -0.138014
v -1.079280 5.447345 -0.078790
v -0.872304 5.458277 -0.151082
v -1.227433 5.431518 -0.017360
v -1.079023 5.401276 0.032104
v -0.868860 5.444034 -0.010961
v -1.228995 5.345747 0.057804
v -1.079778 5.293857 0.067142
v -0.866363 5.344261 0.072823
v -1.232954 5.244006 0.047575
v -1.082473 5.194591 0.027310
v -0.864088 5.225431 0.066122
v -1.237746 5.165170 -0.019045
v -0.865538 5.138591 -0.013240
v -0.771138 5.101874 -0.073998
v -0.679384 5.088487 0.005572
v -0.766907 5.157501 0.041476
v -0.606864 5.033090 -0.052444
v -0.687214 5.073623 -0.147488
v -0.618100 5.078225 -0.238798
v -0.696467 5.171150 -0.292715
v -0.624934 5.242802 -0.341238
v -0.703828 5.347855 -0.304799
v -0.641401 5.418316 -0.267069
v -0.707595 5.459649 -0.169159
v -0.640594 5.464785 -0.082464
v -0.699577 5.431119 -0.000589
v -0.628432 5.363845 0.075109
v -0.692165 5.309814 0.086988
v -0.620465 5.225255 0.124430
v -0.684234 5.183572 0.088540
v -0.611768 5.093990 0.089421
v -1.378303 5.153965 -0.077178
v -1.491403 5.170264 -0.136778
v -1.380756 5.195650 -0.192779
v -1.489559 5.247931 -0.223908
v -1.375208 5.304569 -0.242285
v -1.481702 5.360322 -0.214646
v -1.367431 5.406963 -0.184359
v -1.476509 5.428753 -0.130611
v -1.364294 5.439430 -0.075730
v -1.475422 5.416236 -0.022553
v -1.365419 5.390698 0.027934
v -1.478364 5.333950 0.037487
v -1.369006 5.290595 0.051289
v -1.483642 5.250243 0.034316
v -1.373811 5.207383 0.018672
v -1.487302 5.178196 -0.021960
v -1.578350 5.169142 -0.076095
v -1.579994 5.206041 -0.184716
v -1.574417 5.306694 -0.227330
v -1.567500 5.403511 -0.176503
v -1.564408 5.432356 -0.074503
v -1.565795 5.371691 0.009260
v -1.571142 5.288642 0.034038
v -1.574673 5.214721 0.014350
v -0.783817 5.126169 -0.229072
v -0.784206 5.276063 -0.306834
v -0.783957 5.423775 -0.230828
v -0.780177 5.468465 -0.079043
v -0.774944 5.389692 0.047352
v -0.771657 5.268455 0.080951
v -1.091565 5.145459 -0.147236
v -1.093097 5.229017 -0.257821
v -1.086442 5.374786 -0.256104
v -1.080465 5.442768 -0.141158
v -1.079003 5.434172 -0.018960
v -1.079184 5.350226 0.062141
v -1.080868 5.241027 0.054888
v -1.084870 5.158672 -0.017858
v -0.767976 5.119791 -0.007941
v -0.612126 5.040408 -0.145969
v -0.619811 5.151816 -0.307529
v -0.634191 5.338938 -0.326893
v -0.643616 5.462763 -0.179520
v -0.634506 5.426832 0.007053
v -0.623940 5.294200 0.110648
v -0.615766 5.156456 0.119595
v -1.380380 5.163563 -0.139269
v -1.378873 5.244175 -0.230628
v -1.370954 5.362966 -0.224051
v -1.365287 5.432844 -0.133466
v -1.364501 5.426143 -0.018168
v -1.366706 5.340137 0.049728
v -1.371617 5.247298 0.040813
v -1.375941 5.171795 -0.020511
v -1.580007 5.177426 -0.134710
v -1.577879 5.251479 -0.218022
v -1.570585 5.360768 -0.211310
v -1.565436 5.429167 -0.128944
v -1.564452 5.409746 -0.025837
v -1.568226 5.328838 0.028042
v -1.573319 5.251801 0.030181
v -1.576297 5.183031 -0.021995
v -0.778152 5.098587 -0.150797
v -0.785057 5.191681 -0.286645
v -0.784170 5.358736 -0.283894
v -0.782847 5.463101 -0.159840
v -0.777311 5.440025 -0.006192
v -0.773536 5.329492 0.074863
v -0.768663 5.209628 0.070287
v -0.608638 5.049935 0.028949
v -0.970608 5.132388 -0.078937
v -0.967140 5.150440 -0.015859
v -0.964961 5.186089 0.032283
v -0.964230 5.234783 0.062913
v -0.964233 5.291099 0.076901
v -0.964185 5.350163 0.068819
v -0.964520 5.403638 0.036387
v -0.965344 5.441806 -0.015148
v -0.966061 5.456926 -0.078351
v -0.967193 5.448729 -0.144744
v -0.969053 5.422210 -0.207641
v -0.971997 5.373051 -0.262741
v -0.975500 5.298203 -0.286121
v -0.978499 5.219703 -0.269014
v -0.979028 5.158584 -0.219763
v -0.975479 5.131908 -0.150263
v -1.663077 5.173738 -0.075941
v -1.664503 5.182034 -0.133338
v -1.664307 5.210545 -0.181743
v -1.662280 5.253839 -0.215571
v -1.658978 5.307878 -0.225099
v -1.655398 5.361238 -0.208693
v -1.652380 5.404130 -0.173889
v -1.650292 5.429946 -0.126940
v -1.649383 5.432855 -0.073290
v -1.649673 5.408869 -0.024975
v -1.651095 5.368261 0.007073
v -1.653581 5.325949 0.024408
v -1.656422 5.287571 0.031280
v -1.658419 5.252344 0.028871
v -1.659623 5.216643 0.013940
v -1.661144 5.186746 -0.022412
vt 0.338918 0.608151
vt 0.347035 0.610028
vt 0.343370 0.623096
vt 0.335601 0.621457
vt 0.339364 0.640144
vt 0.331908 0.638821
vt 0.324482 0.637558
vt 0.327648 0.619953
vt 0.330357 0.606511
vt 0.321263 0.605083
vt 0.319304 0.618626
vt 0.316990 0.636304
vt 0.309249 0.635163
vt 0.310604 0.617523
vt 0.311887 0.604031
vt 0.302672 0.603523
vt 0.301922 0.616900
vt 0.301434 0.634347
vt 0.293820 0.634021
vt 0.293671 0.616654
vt 0.293997 0.603277
vt 0.286011 0.603317
vt 0.286087 0.616678
vt 0.286643 0.634048
vt 0.279595 0.634251
vt 0.278809 0.616906
vt 0.278201 0.603604
vt 0.270640 0.604122
vt 0.271681 0.617362
vt 0.272536 0.634677
vt 0.265559 0.635226
vt 0.264604 0.617954
vt 0.263215 0.604701
vt 0.256010 0.605351
vt 0.257697 0.618604
vt 0.258850 0.635903
vt 0.252653 0.636816
vt 0.251113 0.619383
vt 0.249152 0.606104
vt 0.242479 0.606999
vt 0.244838 0.620312
vt 0.247011 0.637847
vt 0.241372 0.638969
vt 0.238634 0.621415
vt 0.235888 0.608132
vt 0.354383 0.612110
vt 0.361042 0.614361
vt 0.357051 0.626540
vt 0.350563 0.624819
vt 0.352665 0.642856
vt 0.346377 0.641505
vt 0.350751 0.598817
vt 0.355026 0.588037
vt 0.362550 0.590861
vt 0.358188 0.601253
vt 0.359889 0.577865
vt 0.367731 0.581275
vt 0.373974 0.585836
vt 0.368885 0.594366
vt 0.364760 0.604020
vt 0.354367 0.566464
vt 0.364833 0.569146
vt 0.350533 0.575451
vt 0.343055 0.564517
vt 0.340212 0.573576
vt 0.331656 0.562983
vt 0.329355 0.572169
vt 0.320629 0.562413
vt 0.318560 0.571362
vt 0.309521 0.563335
vt 0.307676 0.571634
vt 0.298185 0.564512
vt 0.296900 0.572328
vt 0.286906 0.565451
vt 0.286467 0.572974
vt 0.275600 0.565904
vt 0.276069 0.573329
vt 0.264209 0.566140
vt 0.265782 0.573582
vt 0.253389 0.566124
vt 0.256032 0.573785
vt 0.244345 0.566120
vt 0.247570 0.574198
vt 0.236245 0.566364
vt 0.239936 0.574652
vt 0.228241 0.566934
vt 0.232480 0.575274
vt 0.220380 0.569010
vt 0.225289 0.577108
vt 0.329132 0.654528
vt 0.321948 0.653516
vt 0.336366 0.655555
vt 0.334349 0.668061
vt 0.327326 0.667235
vt 0.320356 0.666377
vt 0.314837 0.652430
vt 0.307699 0.651384
vt 0.313527 0.665405
vt 0.306710 0.664510
vt 0.300559 0.650605
vt 0.293615 0.650257
vt 0.299883 0.663844
vt 0.293267 0.663499
vt 0.286935 0.650218
vt 0.280169 0.650328
vt 0.286778 0.663411
vt 0.280146 0.663479
vt 0.273302 0.650590
vt 0.266557 0.651032
vt 0.273573 0.663625
vt 0.267203 0.664034
vt 0.260216 0.651773
vt 0.254552 0.652764
vt 0.261365 0.664763
vt 0.256251 0.665676
vt 0.249483 0.653810
vt 0.244288 0.654906
vt 0.251642 0.666569
vt 0.246769 0.667485
vt 0.343189 0.656696
vt 0.349247 0.657854
vt 0.346729 0.669972
vt 0.340944 0.669004
vt 0.326097 0.677427
vt 0.319368 0.676632
vt 0.332995 0.678147
vt 0.331932 0.687836
vt 0.325153 0.687212
vt 0.318596 0.686458
vt 0.312764 0.675771
vt 0.306185 0.674968
vt 0.312177 0.685608
vt 0.305751 0.684851
vt 0.299524 0.674356
vt 0.292991 0.674012
vt 0.299212 0.684277
vt 0.292723 0.683950
vt 0.286559 0.673907
vt 0.280036 0.673995
vt 0.286410 0.683847
vt 0.280054 0.684003
vt 0.273634 0.674225
vt 0.267489 0.674688
vt 0.273649 0.684375
vt 0.267512 0.684883
vt 0.261967 0.675353
vt 0.257214 0.676102
vt 0.262116 0.685505
vt 0.257534 0.686107
vt 0.252910 0.676745
vt 0.248245 0.677326
vt 0.253396 0.686498
vt 0.248871 0.686642
vt 0.339481 0.678905
vt 0.345056 0.679682
vt 0.343824 0.688925
vt 0.338357 0.688402
vt 0.346149 0.585739
vt 0.336390 0.583894
vt 0.342269 0.596742
vt 0.333079 0.594994
vt 0.326049 0.582430
vt 0.315727 0.581405
vt 0.323306 0.593520
vt 0.313432 0.592464
vt 0.305523 0.581218
vt 0.295610 0.581375
vt 0.303771 0.592076
vt 0.294647 0.592023
vt 0.286101 0.581737
vt 0.276653 0.582122
vt 0.286025 0.592165
vt 0.277470 0.592497
vt 0.267536 0.582483
vt 0.258933 0.582892
vt 0.269299 0.593003
vt 0.261448 0.593488
vt 0.251165 0.583505
vt 0.243942 0.584147
vt 0.254019 0.594136
vt 0.246959 0.594856
vt 0.236921 0.584855
vt 0.230109 0.586210
vt 0.240073 0.595597
vt 0.233320 0.596668
vt 0.373471 0.573471
vt 0.379999 0.579152
vn -0.1317 -0.9764 -0.1709
vn -0.0982 -0.9842 0.1472
vn -0.0577 -0.9922 0.1101
vn -0.0964 -0.9696 -0.2248
vn -0.0427 -0.9956 0.0830
vn -0.0676 -0.9482 -0.3104
vn -0.1010 -0.7605 -0.6414
vn -0.1334 -0.7939 -0.5933
vn -0.1501 -0.7998 -0.5812
vn -0.1345 -0.4229 -0.8961
vn -0.1268 -0.4412 -0.8884
vn -0.1073 -0.4447 -0.8892
vn -0.1170 -0.0052 -0.9931
vn -0.1038 0.0197 -0.9944
vn -0.0878 0.0518 -0.9948
vn -0.0244 0.5457 -0.8376
vn -0.0678 0.5342 -0.8427
vn -0.1181 0.4921 -0.8625
vn -0.0782 0.8355 -0.5438
vn -0.0402 0.8654 -0.4995
vn -0.0409 0.8462 -0.5313
vn -0.0866 0.9633 -0.2542
vn -0.0423 0.9788 -0.2003
vn -0.0403 0.9737 -0.2243
vn -0.0272 0.9975 0.0652
vn -0.0534 0.9960 0.0717
vn -0.0878 0.9945 0.0571
vn -0.0569 0.9054 0.4208
vn -0.0438 0.9227 0.3829
vn -0.0253 0.9225 0.3851
vn -0.0361 0.6547 0.7550
vn -0.0258 0.6940 0.7195
vn -0.0306 0.6755 0.7368
vn -0.0360 0.3369 0.9408
vn -0.0460 0.3077 0.9504
vn -0.0506 0.2344 0.9708
vn -0.0534 -0.1040 0.9931
vn -0.0683 -0.0667 0.9954
vn -0.0582 -0.0502 0.9970
vn -0.0746 -0.3877 0.9188
vn -0.0678 -0.3692 0.9269
vn -0.0529 -0.3726 0.9265
vn -0.0507 -0.6357 0.7703
vn -0.0655 -0.6537 0.7539
vn -0.0912 -0.6738 0.7333
vn -0.0929 -0.8908 0.4447
vn -0.0557 -0.8874 0.4576
vn -0.0440 -0.8744 0.4832
vn -0.1542 -0.9740 0.1661
vn -0.2505 -0.9540 0.1644
vn -0.2804 -0.8572 0.4320
vn -0.1551 -0.8839 0.4413
vn -0.4072 -0.9065 0.1120
vn -0.4545 -0.8169 0.3550
vn -0.4625 -0.5932 0.6590
vn -0.2650 -0.6294 0.7305
vn -0.1311 -0.6629 0.7372
vn -0.4122 -0.8994 -0.1456
vn -0.4972 -0.8653 0.0642
vn -0.3312 -0.9335 -0.1376
vn -0.3385 -0.8091 -0.4803
vn -0.2708 -0.8108 -0.5189
vn -0.3056 -0.5128 -0.8023
vn -0.2315 -0.4982 -0.8356
vn -0.2946 -0.1466 -0.9443
vn -0.2307 -0.0745 -0.9702
vn -0.2488 0.3260 -0.9120
vn -0.2059 0.3983 -0.8939
vn -0.1712 0.7301 -0.6615
vn -0.1330 0.7664 -0.6284
vn -0.0879 0.9625 -0.2568
vn -0.0361 0.9682 -0.2476
vn -0.0455 0.9817 0.1848
vn 0.0254 0.9856 0.1674
vn -0.0386 0.8322 0.5532
vn 0.0261 0.8464 0.5320
vn -0.1399 0.5664 0.8121
vn -0.0574 0.5732 0.8174
vn -0.2786 0.2486 0.9277
vn -0.1735 0.2602 0.9498
vn -0.3963 -0.0060 0.9181
vn -0.2863 -0.0065 0.9581
vn -0.4889 -0.2873 0.8237
vn -0.3953 -0.2924 0.8708
vn -0.5525 -0.5815 0.5972
vn -0.0624 -0.9391 -0.3379
vn -0.0686 -0.7467 -0.6616
vn -0.0549 -0.9955 0.0775
vn -0.0763 -0.9940 0.0780
vn -0.0740 -0.9397 -0.3338
vn -0.0663 -0.7426 -0.6664
vn -0.0761 -0.4095 -0.9091
vn -0.0994 0.0617 -0.9931
vn -0.0728 -0.3844 -0.9203
vn -0.0724 0.0871 -0.9936
vn -0.1134 0.4985 -0.8594
vn -0.0830 0.7938 -0.6025
vn -0.0581 0.4916 -0.8689
vn -0.0354 0.7772 -0.6283
vn -0.0490 0.9570 -0.2860
vn -0.0415 0.9975 0.0571
vn -0.0219 0.9574 -0.2879
vn -0.0326 0.9927 0.1163
vn -0.0672 0.9022 0.4260
vn -0.0979 0.6123 0.7845
vn -0.0891 0.8590 0.5042
vn -0.1296 0.5807 0.8038
vn -0.0918 0.2196 0.9713
vn -0.0718 -0.0988 0.9925
vn -0.1174 0.2526 0.9604
vn -0.0843 -0.0390 0.9957
vn -0.0587 -0.3599 0.9312
vn -0.0499 -0.6184 0.7843
vn -0.0562 -0.3111 0.9487
vn -0.0378 -0.6016 0.7979
vn -0.0515 -0.8652 0.4988
vn -0.0518 -0.8656 0.4981
vn -0.0703 -0.9440 -0.3225
vn -0.0676 -0.7434 -0.6654
vn -0.0718 -0.9957 0.0580
vn -0.0520 -0.9978 0.0419
vn -0.0564 -0.9405 -0.3351
vn -0.0412 -0.7400 -0.6713
vn -0.0572 -0.3863 -0.9206
vn -0.0430 0.0633 -0.9971
vn -0.0282 -0.3907 -0.9201
vn -0.0253 0.0550 -0.9982
vn -0.0278 0.4683 -0.8831
vn -0.0115 0.7707 -0.6371
vn -0.0181 0.4608 -0.8873
vn -0.0119 0.7670 -0.6416
vn 0.0008 0.9619 -0.2735
vn -0.0029 0.9824 0.1869
vn 0.0014 0.9611 -0.2761
vn 0.0158 0.9823 0.1867
vn -0.0419 0.8074 0.5884
vn -0.0845 0.5476 0.8324
vn 0.0131 0.8050 0.5931
vn -0.0113 0.5404 0.8413
vn -0.0837 0.2807 0.9561
vn -0.0571 0.0256 0.9980
vn -0.0384 0.2790 0.9595
vn -0.0216 0.0194 0.9996
vn -0.0326 -0.2495 0.9678
vn -0.0214 -0.5872 0.8092
vn 0.0028 -0.2717 0.9624
vn -0.0031 -0.6099 0.7924
vn -0.0446 -0.8831 0.4670
vn -0.0296 -0.8904 0.4542
vn -0.2229 -0.9663 -0.1288
vn -0.1893 -0.8152 -0.5473
vn -0.1656 -0.9765 -0.1380
vn -0.1611 -0.8101 -0.5638
vn -0.1528 -0.4502 -0.8798
vn -0.1383 0.0252 -0.9901
vn -0.1418 -0.4176 -0.8975
vn -0.0978 0.0829 -0.9918
vn -0.1388 0.4609 -0.8766
vn -0.1039 0.7670 -0.6331
vn -0.0574 0.5214 -0.8514
vn -0.0835 0.7896 -0.6079
vn -0.0344 0.9600 -0.2779
vn 0.0276 0.9881 0.1516
vn -0.0971 0.9524 -0.2890
vn -0.0600 0.9925 0.1065
vn 0.0345 0.8473 0.5300
vn 0.0083 0.5882 0.8087
vn -0.0135 0.8786 0.4774
vn 0.0042 0.6425 0.7663
vn -0.0277 0.2656 0.9637
vn -0.1036 -0.0396 0.9938
vn 0.0046 0.3082 0.9513
vn -0.0267 -0.0544 0.9982
vn -0.1987 -0.3325 0.9219
vn -0.0828 -0.3703 0.9252
vn -0.5613 -0.7602 0.3271
usemtl Ch46_body.001
s 1
f 160/1/1 145/2/2 33/3/3 105/4/4
f 33/3/3 4/5/5 34/6/6 105/4/4
f 105/4/4 34/6/6 3/7/7 35/8/8
f 159/9/9 160/1/1 105/4/4 35/8/8
f 158/10/10 159/9/9 35/8/8 106/11/11
f 35/8/8 3/7/7 37/12/12 106/11/11
f 106/11/11 37/12/12 6/13/13 38/14/14
f 157/15/15 158/10/10 106/11/11 38/14/14
f 156/16/16 157/15/15 38/14/14 107/17/17
f 38/14/14 6/13/13 40/18/18 107/17/17
f 107/17/17 40/18/18 8/19/19 41/20/20
f 155/21/21 156/16/16 107/17/17 41/20/20
f 154/22/22 155/21/21 41/20/20 108/23/23
f 41/20/20 8/19/19 43/24/24 108/23/23
f 108/23/23 43/24/24 10/25/25 44/26/26
f 153/27/27 154/22/22 108/23/23 44/26/26
f 152/28/28 153/27/27 44/26/26 109/29/29
f 44/26/26 10/25/25 46/30/30 109/29/29
f 109/29/29 46/30/30 12/31/31 47/32/32
f 151/33/33 152/28/28 109/29/29 47/32/32
f 150/34/34 151/33/33 47/32/32 110/35/35
f 47/32/32 12/31/31 49/36/36 110/35/35
f 110/35/35 49/36/36 14/37/37 50/38/38
f 149/39/39 150/34/34 110/35/35 50/38/38
f 148/40/40 149/39/39 50/38/38 111/41/41
f 50/38/38 14/37/37 52/42/42 111/41/41
f 111/41/41 52/42/42 16/43/43 53/44/44
f 147/45/45 148/40/40 111/41/41 53/44/44
f 146/46/46 147/47/45 53/48/44 112/49/47
f 53/48/44 16/50/43 55/51/48 112/49/47
f 112/49/47 55/51/48 4/5/5 33/3/3
f 145/2/2 146/46/46 112/49/47 33/3/3
f 1/52/49 57/53/50 113/54/51 56/55/52
f 57/53/50 18/56/53 58/57/54 113/54/51
f 113/54/51 58/57/54 17/58/55 59/59/56
f 56/55/52 113/54/51 59/59/56 15/60/57
f 114/61/58 60/62/59 18/56/53 61/63/60
f 62/64/61 114/61/58 61/63/60 19/65/62
f 115/66/63 62/64/61 19/65/62 63/67/64
f 64/68/65 115/66/63 63/67/64 20/69/66
f 116/70/67 64/68/65 20/69/66 65/71/68
f 66/72/69 116/70/67 65/71/68 21/73/70
f 117/74/71 66/72/69 21/73/70 67/75/72
f 68/76/73 117/74/71 67/75/72 22/77/74
f 118/78/75 68/76/73 22/77/74 69/79/76
f 70/80/77 118/78/75 69/79/76 23/81/78
f 119/82/79 70/80/77 23/81/78 71/83/80
f 72/84/81 119/82/79 71/83/80 24/85/82
f 120/86/83 72/84/81 24/85/82 73/87/84
f 74/88/85 120/86/83 73/87/84 17/89/55
f 3/7/7 34/6/6 121/90/86 77/91/87
f 34/6/6 4/5/5 75/92/88 121/90/86
f 121/90/86 75/92/88 26/93/89 76/94/90
f 77/91/87 121/90/86 76/94/90 25/95/91
f 6/13/13 37/12/12 122/96/92 79/97/93
f 37/12/12 3/7/7 77/91/87 122/96/92
f 122/96/92 77/91/87 25/95/91 78/98/94
f 79/97/93 122/96/92 78/98/94 27/99/95
f 8/19/19 40/18/18 123/100/96 81/101/97
f 40/18/18 6/13/13 79/97/93 123/100/96
f 123/100/96 79/97/93 27/99/95 80/102/98
f 81/101/97 123/100/96 80/102/98 28/103/99
f 10/25/25 43/24/24 124/104/100 83/105/101
f 43/24/24 8/19/19 81/101/97 124/104/100
f 124/104/100 81/101/97 28/103/99 82/106/102
f 83/105/101 124/104/100 82/106/102 29/107/103
f 12/31/31 46/30/30 125/108/104 85/109/105
f 46/30/30 10/25/25 83/105/101 125/108/104
f 125/108/104 83/105/101 29/107/103 84/110/106
f 85/109/105 125/108/104 84/110/106 30/111/107
f 14/37/37 49/36/36 126/112/108 87/113/109
f 49/36/36 12/31/31 85/109/105 126/112/108
f 126/112/108 85/109/105 30/111/107 86/114/110
f 87/113/109 126/112/108 86/114/110 31/115/111
f 16/43/43 52/42/42 127/116/112 89/117/113
f 52/42/42 14/37/37 87/113/109 127/116/112
f 127/116/112 87/113/109 31/115/111 88/118/114
f 89/117/113 127/116/112 88/118/114 32/119/115
f 4/5/5 55/51/48 128/120/116 75/92/88
f 55/51/48 16/50/43 89/121/113 128/120/116
f 128/120/116 89/121/113 32/122/115 90/123/117
f 75/92/88 128/120/116 90/123/117 26/93/89
f 25/95/91 76/94/90 129/124/118 92/125/119
f 76/94/90 26/93/89 91/126/120 129/124/118
f 129/124/118 91/126/120 161/127/121 162/128/122
f 92/125/119 129/124/118 162/128/122 163/129/123
f 27/99/95 78/98/94 130/130/124 93/131/125
f 78/98/94 25/95/91 92/125/119 130/130/124
f 130/130/124 92/125/119 163/129/123 164/132/126
f 93/131/125 130/130/124 164/132/126 165/133/127
f 28/103/99 80/102/98 131/134/128 94/135/129
f 80/102/98 27/99/95 93/131/125 131/134/128
f 131/134/128 93/131/125 165/133/127 166/136/130
f 94/135/129 131/134/128 166/136/130 167/137/131
f 29/107/103 82/106/102 132/138/132 95/139/133
f 82/106/102 28/103/99 94/135/129 132/138/132
f 132/138/132 94/135/129 167/137/131 168/140/134
f 95/139/133 132/138/132 168/140/134 169/141/135
f 30/111/107 84/110/106 133/142/136 96/143/137
f 84/110/106 29/107/103 95/139/133 133/142/136
f 133/142/136 95/139/133 169/141/135 170/144/138
f 96/143/137 133/142/136 170/144/138 171/145/139
f 31/115/111 86/114/110 134/146/140 97/147/141
f 86/114/110 30/111/107 96/143/137 134/146/140
f 134/146/140 96/143/137 171/145/139 172/148/142
f 97/147/141 134/146/140 172/148/142 173/149/143
f 32/119/115 88/118/114 135/150/144 98/151/145
f 88/118/114 31/115/111 97/147/141 135/150/144
f 135/150/144 97/147/141 173/149/143 174/152/146
f 98/151/145 135/150/144 174/152/146 175/153/147
f 26/93/89 90/123/117 136/154/148 91/126/120
f 90/123/117 32/122/115 98/155/145 136/154/148
f 136/154/148 98/155/145 175/156/147 176/157/149
f 91/126/120 136/154/148 176/157/149 161/127/121
f 19/65/62 61/63/60 137/158/150 99/159/151
f 61/63/60 18/56/53 57/53/50 137/158/150
f 137/158/150 57/53/50 1/52/49 36/160/152
f 99/159/151 137/158/150 36/160/152 2/161/153
f 20/69/66 63/67/64 138/162/154 100/163/155
f 63/67/64 19/65/62 99/159/151 138/162/154
f 138/162/154 99/159/151 2/161/153 39/164/156
f 100/163/155 138/162/154 39/164/156 5/165/157
f 21/73/70 65/71/68 139/166/158 101/167/159
f 65/71/68 20/69/66 100/163/155 139/166/158
f 139/166/158 100/163/155 5/165/157 42/168/160
f 101/167/159 139/166/158 42/168/160 7/169/161
f 22/77/74 67/75/72 140/170/162 102/171/163
f 67/75/72 21/73/70 101/167/159 140/170/162
f 140/170/162 101/167/159 7/169/161 45/172/164
f 102/171/163 140/170/162 45/172/164 9/173/165
f 23/81/78 69/79/76 141/174/166 103/175/167
f 69/79/76 22/77/74 102/171/163 141/174/166
f 141/174/166 102/171/163 9/173/165 48/176/168
f 103/175/167 141/174/166 48/176/168 11/177/169
f 24/85/82 71/83/80 142/178/170 104/179/171
f 71/83/80 23/81/78 103/175/167 142/178/170
f 142/178/170 103/175/167 11/177/169 51/180/172
f 104/179/171 142/178/170 51/180/172 13/181/173
f 17/89/55 73/87/84 143/182/174 59/183/56
f 73/87/84 24/85/82 104/179/171 143/182/174
f 143/182/174 104/179/171 13/181/173 54/184/175
f 59/183/56 143/182/174 54/184/175 15/185/57
f 17/58/55 58/57/54 144/186/176 74/187/85
f 58/57/54 18/56/53 60/62/59 144/186/176
f 56/55/52 146/46/46 145/2/2 1/52/49
f 15/60/57 147/47/45 146/46/46 56/55/52
f 54/184/175 148/40/40 147/45/45 15/185/57
f 13/181/173 149/39/39 148/40/40 54/184/175
f 51/180/172 150/34/34 149/39/39 13/181/173
f 11/177/169 151/33/33 150/34/34 51/180/172
f 48/176/168 152/28/28 151/33/33 11/177/169
f 9/173/165 153/27/27 152/28/28 48/176/168
f 45/172/164 154/22/22 153/27/27 9/173/165
f 7/169/161 155/21/21 154/22/22 45/172/164
f 42/168/160 156/16/16 155/21/21 7/169/161
f 5/165/157 157/15/15 156/16/16 42/168/160
f 39/164/156 158/10/10 157/15/15 5/165/157
f 2/161/153 159/9/9 158/10/10 39/164/156
f 36/160/152 160/1/1 159/9/9 2/161/153
f 1/52/49 145/2/2 160/1/1 36/160/152
